<?xml version="1.0" standalone="no"?>
<!DOCTYPE svg PUBLIC "-//W3C//DTD SVG 20010904//EN"
 "http://www.w3.org/TR/2001/REC-SVG-20010904/DTD/svg10.dtd">
<svg version="1.0" xmlns="http://www.w3.org/2000/svg"
 width="320.000000pt" height="320.000000pt" viewBox="0 0 320.000000 320.000000"
 preserveAspectRatio="xMidYMid meet">
<metadata>
Created by potrace 1.14, written by Peter Selinger 2001-2017
</metadata>
<g transform="translate(0.000000,320.000000) scale(0.100000,-0.100000)"
fill="#000000" stroke="none">
<path d="M1450 3194 c-728 -86 -1281 -591 -1422 -1296 -32 -161 -32 -434 0
-593 130 -654 622 -1147 1274 -1277 161 -32 434 -32 593 0 654 130 1147 622
1277 1274 32 161 32 434 0 593 -130 652 -624 1149 -1268 1275 -105 21 -366 34
-454 24z m178 -401 c19 -28 451 -838 494 -926 l23 -49 -23 -19 c-13 -10 -55
-28 -93 -41 -38 -12 -69 -24 -69 -27 0 -4 59 -24 131 -45 117 -35 134 -43 150
-70 33 -54 379 -743 379 -755 0 -15 -64 -46 -575 -281 -418 -193 -441 -202
-471 -191 -95 34 -979 450 -988 465 -9 13 27 91 184 401 222 438 179 386 365
441 83 24 127 44 97 44 -7 0 -49 14 -92 31 -64 24 -80 35 -80 51 0 19 95 205
392 771 128 243 138 254 176 200z"/>
<path d="M1633 2167 c2 -246 7 -450 9 -452 4 -4 385 122 397 131 4 4 -387 745
-401 759 -7 7 -9 -139 -5 -438z"/>
<path d="M1353 2233 c-106 -203 -193 -373 -193 -379 0 -11 381 -146 389 -138
9 9 13 732 4 812 l-8 74 -192 -369z"/>
<path d="M1236 1644 c-60 -19 -111 -36 -113 -38 -2 -2 105 -47 238 -100 l242
-97 241 98 240 97 -119 38 c-66 21 -129 38 -140 38 -11 0 -68 -16 -126 -35
l-106 -36 -99 36 c-54 19 -110 35 -124 34 -14 0 -74 -16 -134 -35z"/>
<path d="M1011 1546 c-14 -17 -331 -641 -331 -652 0 -5 190 -97 423 -203 232
-107 430 -198 440 -203 16 -8 17 14 15 422 l-3 431 -267 109 c-193 78 -270
105 -277 96z"/>
<path d="M1911 1449 c-145 -59 -265 -110 -267 -112 -2 -2 -3 -195 -2 -429 l3
-425 430 198 c237 109 434 200 439 202 8 3 -301 627 -327 660 -10 13 -47 0
-276 -94z"/>
</g>
</svg>
