<svg width="702" height="842" viewBox="0 0 702 842" fill="none" xmlns="http://www.w3.org/2000/svg">
<path fill-rule="evenodd" clip-rule="evenodd" d="M345.709 1.231C344.602 1.77856 312.8 61.9073 256.75 169.421C208.771 261.457 169.042 338.013 168.465 339.548C167.598 341.85 167.642 342.742 168.715 344.66C169.869 346.721 174.523 348.57 210.293 361.181C232.448 368.991 250.27 375.665 249.899 376.013C249.529 376.36 224.415 384.081 194.092 393.169C163.768 402.257 137.989 410.08 136.805 410.553C135.323 411.146 133.63 413.495 131.378 418.083C129.578 421.75 99.4378 480.931 64.3996 549.596C21.8149 633.051 0.693542 675.304 0.693542 677.037C0.693542 678.464 1.17768 680.274 1.77037 681.06C2.3622 681.847 78.4406 717.228 170.832 759.686C263.224 802.146 340.987 837.915 343.638 839.175C349.23 841.832 352.041 842.027 355.875 840.027C357.391 839.235 435 803.486 528.339 760.585C628.402 714.592 698.666 681.827 699.555 680.744C700.384 679.733 701.063 678.161 701.063 677.251C701.063 676.341 671.261 617.213 634.837 545.855C598.412 474.497 568.341 415.235 568.012 414.161C567.683 413.087 566.376 411.684 565.106 411.043C563.837 410.402 537.794 402.389 507.234 393.236C476.673 384.084 451.381 376.336 451.027 376.019C450.673 375.702 468.31 369.242 490.219 361.663C512.128 354.086 530.734 347.204 531.566 346.373C533.451 344.488 533.496 341.291 531.687 337.693C520.765 315.979 354.03 2.86504 352.81 1.77338C350.951 0.113427 348.368 -0.0843507 345.709 1.231ZM342.694 214.55C342.694 384.49 342.619 393.408 341.187 393.019C339.073 392.447 184.748 337.94 184.481 337.673C184.068 337.26 341.402 35.7428 342.048 35.7074C342.404 35.6875 342.694 116.167 342.694 214.55ZM408.175 133.265C436.257 186.229 461.199 233.255 463.603 237.768C501.021 308.004 516.49 337.626 516.006 338.113C514.943 339.183 357.305 393.481 356.783 392.956C356.502 392.676 356.08 312.074 355.844 213.843C355.56 96.0875 355.704 35.5347 356.267 36.1038C356.735 36.5788 380.094 80.3015 408.175 133.265ZM310.877 396.681C331.049 403.806 348.515 409.636 349.689 409.636C350.864 409.636 368.624 403.806 389.156 396.681C409.688 389.556 427.023 383.726 427.679 383.726C430.311 383.726 541.706 417.739 541.077 418.351C540.705 418.713 510.163 431.303 473.206 446.328C436.249 461.353 394.125 478.482 379.598 484.392C365.071 490.303 352.536 495.138 351.746 495.138C350.267 495.138 161.038 419.37 159.815 418.289C159.187 417.733 270.032 383.916 272.911 383.785C273.62 383.753 290.704 389.556 310.877 396.681ZM242.334 466.181C296.348 487.899 341.489 506.117 342.649 506.665L344.756 507.661L344.466 636.778C344.306 707.793 343.939 779.005 343.65 795.028L343.125 824.16L319.865 813.411C307.073 807.5 233.612 773.705 156.618 738.314C66.4016 696.843 16.7236 673.572 16.8916 672.86C17.6342 669.717 142.533 426.11 143.266 426.378C143.739 426.551 188.32 444.462 242.334 466.181ZM621.724 549.654C656.432 617.639 684.508 673.561 684.116 673.925C683.572 674.43 363.905 821.644 358.297 823.972C357.278 824.395 357.194 801.045 357.735 666.065C358.085 578.943 358.624 507.55 358.932 507.414C361.271 506.378 557.739 426.22 558.124 426.144C558.395 426.09 587.015 481.67 621.724 549.654Z" fill="white"/>
</svg>
